<mxfile host="app.diagrams.net" agent="Mozilla/5.0 (Windows NT 10.0; Win64; x64) AppleWebKit/537.36 (KHTML, like Gecko) Chrome/130.0.0.0 Safari/537.36" version="24.8.6">
  <diagram id="C5RBs43oDa-KdzZeNtuy" name="Page-1">
    <mxGraphModel dx="1050" dy="1691" grid="1" gridSize="10" guides="1" tooltips="1" connect="1" arrows="1" fold="1" page="1" pageScale="1" pageWidth="827" pageHeight="1169" math="0" shadow="0">
      <root>
        <mxCell id="WIyWlLk6GJQsqaUBKTNV-0" />
        <mxCell id="WIyWlLk6GJQsqaUBKTNV-1" parent="WIyWlLk6GJQsqaUBKTNV-0" />
        <mxCell id="kqcIpFC9SLbATLq8nfYY-9" value="" style="edgeStyle=orthogonalEdgeStyle;rounded=0;orthogonalLoop=1;jettySize=auto;html=1;" edge="1" parent="WIyWlLk6GJQsqaUBKTNV-1" source="kqcIpFC9SLbATLq8nfYY-0" target="kqcIpFC9SLbATLq8nfYY-8">
          <mxGeometry relative="1" as="geometry" />
        </mxCell>
        <mxCell id="kqcIpFC9SLbATLq8nfYY-0" value="START" style="ellipse;whiteSpace=wrap;html=1;" vertex="1" parent="WIyWlLk6GJQsqaUBKTNV-1">
          <mxGeometry x="320" y="-480" width="120" height="80" as="geometry" />
        </mxCell>
        <mxCell id="kqcIpFC9SLbATLq8nfYY-13" value="" style="edgeStyle=orthogonalEdgeStyle;rounded=0;orthogonalLoop=1;jettySize=auto;html=1;" edge="1" parent="WIyWlLk6GJQsqaUBKTNV-1" source="kqcIpFC9SLbATLq8nfYY-8" target="kqcIpFC9SLbATLq8nfYY-12">
          <mxGeometry relative="1" as="geometry" />
        </mxCell>
        <mxCell id="kqcIpFC9SLbATLq8nfYY-8" value="Nháº­p a,b" style="shape=parallelogram;perimeter=parallelogramPerimeter;whiteSpace=wrap;html=1;fixedSize=1;" vertex="1" parent="WIyWlLk6GJQsqaUBKTNV-1">
          <mxGeometry x="320" y="-350" width="120" height="60" as="geometry" />
        </mxCell>
        <mxCell id="kqcIpFC9SLbATLq8nfYY-15" value="" style="edgeStyle=orthogonalEdgeStyle;rounded=0;orthogonalLoop=1;jettySize=auto;html=1;" edge="1" parent="WIyWlLk6GJQsqaUBKTNV-1" source="kqcIpFC9SLbATLq8nfYY-12" target="kqcIpFC9SLbATLq8nfYY-14">
          <mxGeometry relative="1" as="geometry" />
        </mxCell>
        <mxCell id="kqcIpFC9SLbATLq8nfYY-17" value="" style="edgeStyle=orthogonalEdgeStyle;rounded=0;orthogonalLoop=1;jettySize=auto;html=1;" edge="1" parent="WIyWlLk6GJQsqaUBKTNV-1" source="kqcIpFC9SLbATLq8nfYY-12" target="kqcIpFC9SLbATLq8nfYY-16">
          <mxGeometry relative="1" as="geometry" />
        </mxCell>
        <mxCell id="kqcIpFC9SLbATLq8nfYY-21" value="" style="edgeStyle=orthogonalEdgeStyle;rounded=0;orthogonalLoop=1;jettySize=auto;html=1;" edge="1" parent="WIyWlLk6GJQsqaUBKTNV-1" source="kqcIpFC9SLbATLq8nfYY-12">
          <mxGeometry relative="1" as="geometry">
            <mxPoint x="380" y="-60" as="targetPoint" />
          </mxGeometry>
        </mxCell>
        <mxCell id="kqcIpFC9SLbATLq8nfYY-12" value="a&amp;lt;b?" style="rhombus;whiteSpace=wrap;html=1;" vertex="1" parent="WIyWlLk6GJQsqaUBKTNV-1">
          <mxGeometry x="340" y="-220" width="80" height="80" as="geometry" />
        </mxCell>
        <mxCell id="kqcIpFC9SLbATLq8nfYY-28" value="" style="edgeStyle=orthogonalEdgeStyle;rounded=0;orthogonalLoop=1;jettySize=auto;html=1;" edge="1" parent="WIyWlLk6GJQsqaUBKTNV-1" source="kqcIpFC9SLbATLq8nfYY-14" target="kqcIpFC9SLbATLq8nfYY-27">
          <mxGeometry relative="1" as="geometry" />
        </mxCell>
        <mxCell id="kqcIpFC9SLbATLq8nfYY-14" value="True&lt;div&gt;a&amp;lt;b&lt;/div&gt;" style="rhombus;whiteSpace=wrap;html=1;" vertex="1" parent="WIyWlLk6GJQsqaUBKTNV-1">
          <mxGeometry x="180" y="-220" width="80" height="80" as="geometry" />
        </mxCell>
        <mxCell id="kqcIpFC9SLbATLq8nfYY-24" value="" style="edgeStyle=orthogonalEdgeStyle;rounded=0;orthogonalLoop=1;jettySize=auto;html=1;" edge="1" parent="WIyWlLk6GJQsqaUBKTNV-1" source="kqcIpFC9SLbATLq8nfYY-16" target="kqcIpFC9SLbATLq8nfYY-23">
          <mxGeometry relative="1" as="geometry" />
        </mxCell>
        <mxCell id="kqcIpFC9SLbATLq8nfYY-16" value="False&lt;div&gt;b&amp;lt;a&lt;/div&gt;" style="rhombus;whiteSpace=wrap;html=1;" vertex="1" parent="WIyWlLk6GJQsqaUBKTNV-1">
          <mxGeometry x="500" y="-220" width="80" height="80" as="geometry" />
        </mxCell>
        <mxCell id="kqcIpFC9SLbATLq8nfYY-22" value="END" style="ellipse;whiteSpace=wrap;html=1;" vertex="1" parent="WIyWlLk6GJQsqaUBKTNV-1">
          <mxGeometry x="320" y="-80" width="120" height="80" as="geometry" />
        </mxCell>
        <mxCell id="kqcIpFC9SLbATLq8nfYY-26" value="" style="edgeStyle=orthogonalEdgeStyle;rounded=0;orthogonalLoop=1;jettySize=auto;html=1;" edge="1" parent="WIyWlLk6GJQsqaUBKTNV-1" source="kqcIpFC9SLbATLq8nfYY-23" target="kqcIpFC9SLbATLq8nfYY-22">
          <mxGeometry relative="1" as="geometry" />
        </mxCell>
        <mxCell id="kqcIpFC9SLbATLq8nfYY-23" value="" style="shape=waypoint;sketch=0;size=6;pointerEvents=1;points=[];fillColor=default;resizable=0;rotatable=0;perimeter=centerPerimeter;snapToPoint=1;" vertex="1" parent="WIyWlLk6GJQsqaUBKTNV-1">
          <mxGeometry x="530" y="-50" width="20" height="20" as="geometry" />
        </mxCell>
        <mxCell id="kqcIpFC9SLbATLq8nfYY-29" value="" style="edgeStyle=orthogonalEdgeStyle;rounded=0;orthogonalLoop=1;jettySize=auto;html=1;" edge="1" parent="WIyWlLk6GJQsqaUBKTNV-1" source="kqcIpFC9SLbATLq8nfYY-27" target="kqcIpFC9SLbATLq8nfYY-22">
          <mxGeometry relative="1" as="geometry" />
        </mxCell>
        <mxCell id="kqcIpFC9SLbATLq8nfYY-27" value="" style="shape=waypoint;sketch=0;size=6;pointerEvents=1;points=[];fillColor=default;resizable=0;rotatable=0;perimeter=centerPerimeter;snapToPoint=1;" vertex="1" parent="WIyWlLk6GJQsqaUBKTNV-1">
          <mxGeometry x="210" y="-50" width="20" height="20" as="geometry" />
        </mxCell>
      </root>
    </mxGraphModel>
  </diagram>
</mxfile>
